<svg xmlns="http://www.w3.org/2000/svg" xmlns:xlink="http://www.w3.org/1999/xlink" viewBox="0 0 347.01 382.82"><defs><style>.cls-1{fill:url(#linear-gradient);}.cls-2{fill:url(#linear-gradient-2);}.cls-3{fill:url(#linear-gradient-3);}</style><linearGradient id="linear-gradient" x1="52.52" y1="601.36" x2="399.22" y2="-70.03" gradientUnits="userSpaceOnUse"><stop offset="0.39" stop-color="#ff415b"/><stop offset="1" stop-color="#f6ff14"/></linearGradient><linearGradient id="linear-gradient-2" x1="45.25" y1="600.96" x2="391.95" y2="-70.43" xlink:href="#linear-gradient"/><linearGradient id="linear-gradient-3" x1="-107.51" y1="518.72" x2="239.19" y2="-152.67" xlink:href="#linear-gradient"/></defs><g id="Layer_2" data-name="Layer 2"><g id="Layer_1-2" data-name="Layer 1"><path class="cls-1" d="M130.3,253.7v72.84a19.84,19.84,0,0,0,9.93,17.2l63.08,36.42a19.85,19.85,0,0,0,19.86,0l63.08-36.42a19.84,19.84,0,0,0,9.94-17.2V253.7a19.87,19.87,0,0,0-9.94-17.2l-63.08-36.42a19.85,19.85,0,0,0-19.86,0L140.23,236.5A19.86,19.86,0,0,0,130.3,253.7Z"/><path class="cls-2" d="M223.62,109v54.18A14.77,14.77,0,0,0,231,176L277.93,203a14.76,14.76,0,0,0,14.77,0L339.62,176A14.77,14.77,0,0,0,347,163.16V109a14.77,14.77,0,0,0-7.39-12.79L292.7,69.1a14.76,14.76,0,0,0-14.77,0L231,96.19A14.77,14.77,0,0,0,223.62,109Z"/><path class="cls-3" d="M0,69v89.29a24.34,24.34,0,0,0,12.17,21.08L89.5,224a24.35,24.35,0,0,0,24.35,0l77.32-44.65a24.34,24.34,0,0,0,12.17-21.08V69a24.33,24.33,0,0,0-12.17-21.08L113.85,3.26a24.35,24.35,0,0,0-24.35,0L12.17,47.91A24.33,24.33,0,0,0,0,69Z"/></g></g></svg>